<svg id="Layer_1" data-name="Layer 1" xmlns="http://www.w3.org/2000/svg" viewBox="0 0 32 37"><defs><style>.cls-1{fill:#161616;}</style></defs><path class="cls-1" d="M31.31,4.27,14.8,27.8l-.5.71-2.76,3.92-.29.41-.69,1a3.15,3.15,0,0,1-1.93-4.92l5.46-7.61,11.83-17Z"/><path class="cls-1" d="M4.41,4.27,13.1,19.64a43.63,43.63,0,0,1,2.81-4l-4.2-7.24a8.47,8.47,0,0,0-7.3-4.18Z"/><path class="cls-1" d="M15,5.6a11.79,11.79,0,0,1,7,2.32l1.38-2A14.25,14.25,0,0,0,15,3.17,11.4,11.4,0,0,0,9.64,4.33l2.09,1.86A8,8,0,0,1,15,5.6Z"/><path class="cls-1" d="M8.35,27.36A11.89,11.89,0,0,1,5.86,9.92L4.62,7.65A14.32,14.32,0,0,0,7.07,29.42Z"/><path class="cls-1" d="M29.45,28.8A7.82,7.82,0,0,1,25,30.18c-1.34.11-7.14.16-10.06.16l2.27-3.18c3.06,0,6.39-.07,7.64-.1a3.18,3.18,0,0,0,2.49-.8,1.92,1.92,0,0,0,0-2.26,3.09,3.09,0,0,0-2.06-1.15h0a1.78,1.78,0,0,1-1.4-2.42l.12-.31a5.59,5.59,0,0,0,2-.09,2,2,0,0,0,1.44-1.24,2.11,2.11,0,0,0-1.41-2.39l-.27-.1a4.29,4.29,0,0,1-.63-.23l1.79-2.42a5.57,5.57,0,0,1,2.31,1.14,3.89,3.89,0,0,1-1.35,6.68,4.22,4.22,0,0,1,1.66,7.34Z"/></svg>