<svg width="166" height="166" viewBox="0 0 166 166" fill="none" xmlns="http://www.w3.org/2000/svg">
<g clip-path="url(#clip0_1_53)">
<circle cx="83.125" cy="83" r="80" fill="#1E1E1E" stroke="white" stroke-width="5"/>
<g clip-path="url(#clip1_1_53)">
<path d="M83.125 83C83.125 79.6848 84.442 76.5054 86.7862 74.1612C89.1304 71.817 92.3098 70.5 95.625 70.5C98.9402 70.5 102.12 71.817 104.464 74.1612C106.808 76.5054 108.125 79.6848 108.125 83C108.125 86.3152 106.808 89.4946 104.464 91.8388C102.12 94.183 98.9402 95.5 95.625 95.5C92.3098 95.5 89.1304 94.183 86.7862 91.8388C84.442 89.4946 83.125 86.3152 83.125 83V83Z" fill="#1ABCFE"/>
<path d="M58.125 108C58.125 104.685 59.442 101.505 61.7862 99.1612C64.1304 96.817 67.3098 95.5 70.625 95.5H83.125V108C83.125 111.315 81.808 114.495 79.4638 116.839C77.1196 119.183 73.9402 120.5 70.625 120.5C67.3098 120.5 64.1304 119.183 61.7862 116.839C59.442 114.495 58.125 111.315 58.125 108V108Z" fill="#0ACF83"/>
<path d="M83.125 45.5V70.5H95.625C98.9402 70.5 102.12 69.183 104.464 66.8388C106.808 64.4946 108.125 61.3152 108.125 58C108.125 54.6848 106.808 51.5054 104.464 49.1612C102.12 46.817 98.9402 45.5 95.625 45.5H83.125Z" fill="#FF7262"/>
<path d="M58.125 58C58.125 61.3152 59.442 64.4946 61.7862 66.8388C64.1304 69.183 67.3098 70.5 70.625 70.5H83.125V45.5H70.625C67.3098 45.5 64.1304 46.817 61.7862 49.1612C59.442 51.5054 58.125 54.6848 58.125 58V58Z" fill="#F24E1E"/>
<path d="M58.125 83C58.125 86.3152 59.442 89.4946 61.7862 91.8388C64.1304 94.183 67.3098 95.5 70.625 95.5H83.125V70.5H70.625C67.3098 70.5 64.1304 71.817 61.7862 74.1612C59.442 76.5054 58.125 79.6848 58.125 83V83Z" fill="#A259FF"/>
</g>
</g>
<defs>
<clipPath id="clip0_1_53">
<rect width="165" height="165" fill="white" transform="translate(0.625 0.5)"/>
</clipPath>
<clipPath id="clip1_1_53">
<rect width="50" height="75" fill="white" transform="translate(58.125 45.5)"/>
</clipPath>
</defs>
</svg>
