<svg width="166" height="166" viewBox="0 0 166 166" fill="none" xmlns="http://www.w3.org/2000/svg">
<g clip-path="url(#clip0_1_23)">
<circle cx="82.875" cy="83" r="80" fill="#350403" stroke="#EBA841" stroke-width="5"/>
<path d="M66.6388 53.2491H80.0089L100.969 117.547H88.8978L79.0939 83.3309C77.0514 76.5294 75.16 69.1968 73.2728 62.1339H72.8643C71.0955 69.2499 69.1878 76.5294 67.1453 83.3309L57.3005 117.547H45.6625L66.6388 53.2491ZM58.0604 91.1781H88.3463V100.128H58.0645L58.0604 91.1781Z" fill="#EBA841"/>
<path d="M106.663 54.4134C106.663 50.5939 109.653 48 113.665 48C117.676 48 120.662 50.5939 120.662 54.4134C120.662 58.1429 117.676 60.8186 113.665 60.8186C109.653 60.8186 106.663 58.1225 106.663 54.4134ZM107.962 69.2704H119.286V117.567H107.954L107.962 69.2704Z" fill="#EBA841"/>
</g>
<defs>
<clipPath id="clip0_1_23">
<rect width="165" height="165" fill="white" transform="translate(0.375 0.5)"/>
</clipPath>
</defs>
</svg>
