<svg id="Layer_1" data-name="Layer 1" xmlns="http://www.w3.org/2000/svg" viewBox="0 0 35 40"><defs><style>.cls-1{fill:#fff;}</style></defs><path class="cls-1" d="M34.56,4.4,16.56,30l-.54.77-3,4.28-.32.44L12,36.61a3.43,3.43,0,0,1-2.1-5.36L15.79,23,28.68,4.4Z"/><path class="cls-1" d="M5.24,4.4l9.47,16.75a47.17,47.17,0,0,1,3.06-4.31L13.2,9a9.24,9.24,0,0,0-8-4.56Z"/><path class="cls-1" d="M16.81,5.85a12.91,12.91,0,0,1,7.67,2.52L26,6.19a15.55,15.55,0,0,0-9.18-3A12.37,12.37,0,0,0,11,4.46l2.27,2A8.75,8.75,0,0,1,16.81,5.85Z"/><path class="cls-1" d="M9.54,29.56a13,13,0,0,1-2.72-19L5.47,8.09A15.6,15.6,0,0,0,8.14,31.81Z"/><path class="cls-1" d="M32.53,31.13a8.5,8.5,0,0,1-4.85,1.51c-1.46.12-7.77.17-11,.17l2.47-3.47c3.34,0,7-.07,8.33-.1a3.46,3.46,0,0,0,2.71-.88,2.1,2.1,0,0,0,0-2.46A3.4,3.4,0,0,0,28,24.64h0A2,2,0,0,1,26.4,22c.05-.11.09-.23.14-.34a5.91,5.91,0,0,0,2.14-.1,2.22,2.22,0,0,0,1.56-1.35,2.29,2.29,0,0,0-1.53-2.61l-.3-.1a4.32,4.32,0,0,1-.68-.26l1.95-2.63a6,6,0,0,1,2.51,1.24,4.23,4.23,0,0,1-1.46,7.28,4.6,4.6,0,0,1,1.8,8Z"/></svg>