<svg width="166" height="166" viewBox="0 0 166 166" fill="none" xmlns="http://www.w3.org/2000/svg">
<g clip-path="url(#clip0_1_13)">
<circle cx="82.625" cy="83" r="80" fill="#031F3B" stroke="#5AB2E8" stroke-width="5"/>
<path d="M45.125 55.5H62.4784C74.7288 55.5 83.773 59.7456 83.773 72.4825C83.773 84.7678 74.6728 90.3329 62.818 90.3329H54.8937V110.581H45.125V55.5ZM62.0094 82.5243C70.2312 82.5243 74.1373 79.2516 74.1373 72.4825C74.1373 65.6433 69.8601 63.3192 61.6699 63.3192H54.8937V82.5243H62.0094Z" fill="#5AB2E8"/>
<path d="M88.3827 105.849L92.8978 99.6817C96.5729 102.552 100.125 104.298 104.322 104.298C108.837 104.298 110.972 102.181 110.972 99.3457C110.972 95.8771 106.492 94.3266 102.079 92.6465C96.6534 90.6025 90.4512 87.4874 90.4512 80.5817C90.4512 73.4065 96.2474 68.2124 105.502 68.2124C111.263 68.2124 115.879 70.554 119.246 73.165L114.801 79.1152C111.903 76.9906 108.988 75.5066 105.736 75.5066C101.575 75.5066 99.604 77.4981 99.604 80.0917C99.604 83.3607 103.783 84.6033 108.263 86.2554C113.863 88.3554 120.125 91.0435 120.125 98.7612C120.125 105.866 114.497 111.592 104.053 111.592C98.3894 111.599 92.4253 109.181 88.3827 105.849Z" fill="#5AB2E8"/>
</g>
<defs>
<clipPath id="clip0_1_13">
<rect width="165" height="165" fill="white" transform="translate(0.125 0.5)"/>
</clipPath>
</defs>
</svg>
