<svg width="166" height="166" viewBox="0 0 166 166" fill="none" xmlns="http://www.w3.org/2000/svg">
<g clip-path="url(#clip0_1_38)">
<circle cx="83.375" cy="83" r="80" fill="#400131" stroke="#E577DC" stroke-width="5"/>
<path d="M59.6911 84.243L46.7352 60.6488H56.3275L61.7519 71.4604C62.9122 73.6976 63.9551 75.9595 65.4156 78.9084H65.725C66.9473 75.9595 67.9282 73.6976 69.0019 71.4604L74.1539 60.6488H83.3285L70.3727 84.6638L84.195 109.353H74.6026L68.6429 97.858C67.4052 95.3825 66.1675 92.9071 64.741 89.9304H64.4316C63.1506 92.9102 61.9871 95.3825 60.8267 97.858L55.0496 109.353H45.875L59.6911 84.243Z" fill="#E577DC"/>
<path d="M87.5399 91.0969C87.5399 79.1807 95.0158 71.8781 103.03 71.8781C107.17 71.8781 109.791 73.4253 112.622 75.9007L112.294 70.0215V56.75H120.875V109.353H113.842L113.189 105.396H112.95C110.24 108.106 106.486 110.245 102.554 110.245C93.4191 110.245 87.5399 103.159 87.5399 91.0969ZM112.294 99.0462V82.0058C109.791 79.7748 107.319 78.9672 104.846 78.9672C100.205 78.9672 96.3556 83.3766 96.3556 91.0041C96.3556 98.9596 99.3943 103.159 104.667 103.159C107.489 103.159 109.872 101.908 112.294 99.0462Z" fill="#E577DC"/>
</g>
<defs>
<clipPath id="clip0_1_38">
<rect width="165" height="165" fill="white" transform="translate(0.875 0.5)"/>
</clipPath>
</defs>
</svg>
