<svg width="166" height="165" viewBox="0 0 166 165" fill="none" xmlns="http://www.w3.org/2000/svg">
<g clip-path="url(#clip0_1_84)">
<circle cx="83" cy="82.5" r="80" fill="#03015C" stroke="#ABA8FF" stroke-width="5"/>
<path d="M61.0339 58.75H70.9313L86.4471 106.246H77.5083L70.2509 80.9711C68.7389 75.9469 67.3419 70.5304 65.9448 65.3131H65.6424C64.333 70.5696 62.936 75.9469 61.424 80.9711L54.1152 106.246H45.5L61.0339 58.75ZM54.6837 86.7677H77.1001V93.3791H54.6837V86.7677Z" fill="#ABA8FF"/>
<path d="M89.2654 88.4394C89.2654 76.8491 97.3273 69.7006 105.74 69.7006C115.416 69.7006 120.5 76.6741 120.5 86.6379C120.507 88.0022 120.386 89.3641 120.137 90.7056H97.4572C98.1558 97.0424 102.232 100.639 107.996 100.639C111.053 100.639 113.672 99.6827 116.29 98.0562L119.145 103.252C115.531 105.719 111.267 107.063 106.889 107.115C97.0067 107.115 89.2654 100.202 89.2654 88.4394ZM113.251 85.0115C113.251 79.5226 110.808 76.1822 105.915 76.1822C101.754 76.1822 98.0863 79.2872 97.3575 85.0115H113.251Z" fill="#ABA8FF"/>
</g>
<defs>
<clipPath id="clip0_1_84">
<rect width="165" height="165" fill="white" transform="translate(0.5)"/>
</clipPath>
</defs>
</svg>
