<svg width="166" height="165" viewBox="0 0 166 165" fill="none" xmlns="http://www.w3.org/2000/svg">
<g clip-path="url(#clip0_1_53)">
<circle cx="83.125" cy="82.5" r="80" fill="#1E1E1E" stroke="white" stroke-width="5"/>
<g clip-path="url(#clip1_1_53)">
<path d="M83.125 82.5C83.125 79.1848 84.442 76.0054 86.7862 73.6612C89.1304 71.317 92.3098 70 95.625 70C98.9402 70 102.12 71.317 104.464 73.6612C106.808 76.0054 108.125 79.1848 108.125 82.5C108.125 85.8152 106.808 88.9946 104.464 91.3388C102.12 93.683 98.9402 95 95.625 95C92.3098 95 89.1304 93.683 86.7862 91.3388C84.442 88.9946 83.125 85.8152 83.125 82.5V82.5Z" fill="#1ABCFE"/>
<path d="M58.125 107.5C58.125 104.185 59.442 101.005 61.7862 98.6612C64.1304 96.317 67.3098 95 70.625 95H83.125V107.5C83.125 110.815 81.808 113.995 79.4638 116.339C77.1196 118.683 73.9402 120 70.625 120C67.3098 120 64.1304 118.683 61.7862 116.339C59.442 113.995 58.125 110.815 58.125 107.5V107.5Z" fill="#0ACF83"/>
<path d="M83.125 45V70H95.625C98.9402 70 102.12 68.683 104.464 66.3388C106.808 63.9946 108.125 60.8152 108.125 57.5C108.125 54.1848 106.808 51.0054 104.464 48.6612C102.12 46.317 98.9402 45 95.625 45H83.125Z" fill="#FF7262"/>
<path d="M58.125 57.5C58.125 60.8152 59.442 63.9946 61.7862 66.3388C64.1304 68.683 67.3098 70 70.625 70H83.125V45H70.625C67.3098 45 64.1304 46.317 61.7862 48.6612C59.442 51.0054 58.125 54.1848 58.125 57.5V57.5Z" fill="#F24E1E"/>
<path d="M58.125 82.5C58.125 85.8152 59.442 88.9946 61.7862 91.3388C64.1304 93.683 67.3098 95 70.625 95H83.125V70H70.625C67.3098 70 64.1304 71.317 61.7862 73.6612C59.442 76.0054 58.125 79.1848 58.125 82.5V82.5Z" fill="#A259FF"/>
</g>
</g>
<defs>
<clipPath id="clip0_1_53">
<rect width="165" height="165" fill="white" transform="translate(0.625)"/>
</clipPath>
<clipPath id="clip1_1_53">
<rect width="50" height="75" fill="white" transform="translate(58.125 45)"/>
</clipPath>
</defs>
</svg>
