<svg width="60" height="70" viewBox="0 0 60 70" fill="none" xmlns="http://www.w3.org/2000/svg">
<circle cx="30" cy="35" r="30" fill="#F6483B"/>
<path d="M35.2629 35.1367C35.1102 36.3841 34.5492 37.5731 33.6251 38.4972C32.5019 39.6211 30.9318 40.1502 28.9602 40.0705C27.5773 40.0154 26.9387 40.3772 26.8338 40.443C26.4103 40.8141 25.8725 41.0172 25.3049 41.0172C24.6842 41.0172 24.1007 40.7756 23.6619 40.3367C22.9044 39.5793 22.7823 38.4109 23.2994 37.5206L23.6705 36.9325C23.7967 36.6251 23.9673 36.0183 23.9274 35.0378C23.8484 33.0655 24.3775 31.4961 25.5008 30.3729C26.4209 29.4534 27.5973 28.8838 28.8692 28.7318C29.0491 27.8668 29.4388 27.0575 30.0011 26.3777H16.6588C15.193 26.3777 14.0001 27.57 14.0001 29.0358V42.2195H41.7362V29.1288L38.3657 33.2593C37.5731 34.2279 36.4724 34.8871 35.2629 35.1367Z" fill="white"/>
<path d="M14.0001 45.0607C14.0001 46.5259 15.193 47.7182 16.6588 47.7182H24.2148V49.9979H22.54C21.9901 49.9979 21.5442 50.4437 21.5442 50.9937C21.5442 51.5436 21.9901 51.9895 22.54 51.9895H33.1959C33.7458 51.9895 34.1917 51.5436 34.1917 50.9937C34.1917 50.4437 33.7458 49.9979 33.1959 49.9979H31.5211V47.7182H39.0773C40.5431 47.7182 41.7361 46.5259 41.7361 45.0607V44.211H14V45.0607H14.0001Z" fill="white"/>
<path d="M25.0943 38.4358C25.0941 38.4359 25.0939 38.4361 25.0938 38.4363C25.0936 38.4364 25.0936 38.4365 25.0935 38.4366L25.0932 38.4369C25.0931 38.4369 25.093 38.4371 25.0929 38.4372C25.0928 38.4374 25.0928 38.4374 25.0926 38.4375L25.0925 38.4376C25.0924 38.4377 25.0923 38.4378 25.0922 38.4379C25.0922 38.4379 25.0922 38.4379 25.0921 38.438C25.092 38.438 25.0919 38.4382 25.0918 38.4383C25.0918 38.4383 25.0918 38.4383 25.0918 38.4384C25.0916 38.4384 25.0916 38.4386 25.0914 38.4387C25.0914 38.4387 25.0914 38.4387 25.0914 38.4388L25.091 38.4391C24.9652 38.569 24.9664 38.7763 25.0947 38.9047C25.1596 38.9695 25.2445 39.0019 25.3295 39.0019C25.4137 39.0019 25.4978 38.9701 25.5624 38.9065C25.5827 38.8872 26.5883 37.9576 29.0654 38.0572C30.459 38.1134 31.5276 37.7795 32.2417 37.0655C33.705 35.6021 33.705 33.2211 32.2417 31.7578C31.5328 31.0489 30.5904 30.6585 29.5879 30.6585C28.5854 30.6585 27.6429 31.0489 26.934 31.7578C26.22 32.4718 25.8863 33.5405 25.9423 34.9341C26.0424 37.4247 25.1023 38.4275 25.0947 38.4353C25.0945 38.4355 25.0944 38.4357 25.0943 38.4358Z" fill="white"/>
<path d="M35.1765 33.0893C35.8258 32.8948 36.4107 32.5098 36.8468 31.9767L38.1192 30.4174L33.5866 25.8849L32.0339 27.1531C31.4994 27.5886 31.1131 28.1728 30.9179 28.8221C31.9442 29.063 32.8856 29.5855 33.6497 30.3496C34.4317 31.1316 34.9409 32.0842 35.1765 33.0893Z" fill="white"/>
<path d="M45.4019 18.598C44.6604 17.8564 43.488 17.7973 42.6755 18.4612L35.1368 24.6187L39.3847 28.8665L45.5393 21.3238C46.2025 20.5119 46.1435 19.3395 45.4019 18.598Z" fill="white"/>
</svg>
