<svg width="166" height="165" viewBox="0 0 166 165" fill="none" xmlns="http://www.w3.org/2000/svg">
<g clip-path="url(#clip0_1_23)">
<circle cx="82.875" cy="82.5" r="80" fill="#350403" stroke="#EBA841" stroke-width="5"/>
<path d="M66.6388 52.7491H80.0089L100.969 117.047H88.8978L79.0939 82.8309C77.0514 76.0294 75.16 68.6968 73.2728 61.6339H72.8643C71.0955 68.7499 69.1878 76.0294 67.1453 82.8309L57.3005 117.047H45.6625L66.6388 52.7491ZM58.0604 90.6781H88.3463V99.6282H58.0645L58.0604 90.6781Z" fill="#EBA841"/>
<path d="M106.663 53.9134C106.663 50.0939 109.653 47.5 113.665 47.5C117.676 47.5 120.662 50.0939 120.662 53.9134C120.662 57.6429 117.676 60.3186 113.665 60.3186C109.653 60.3186 106.663 57.6225 106.663 53.9134ZM107.962 68.7704H119.286V117.067H107.954L107.962 68.7704Z" fill="#EBA841"/>
</g>
<defs>
<clipPath id="clip0_1_23">
<rect width="165" height="165" fill="white" transform="translate(0.375)"/>
</clipPath>
</defs>
</svg>
