<svg width="166" height="165" viewBox="0 0 166 165" fill="none" xmlns="http://www.w3.org/2000/svg">
<g clip-path="url(#clip0_1_79)">
<circle cx="82.75" cy="82.5" r="80" fill="#1FB6FF" stroke="white" stroke-width="5"/>
<path d="M121.398 89.9417C81.8258 86.9554 49.1223 96.2798 41.7671 99.7536C37.6943 101.582 37.3904 103.898 37.9983 105.178C38.5454 106.153 40.4906 106.762 42.6181 105.665C58.3012 97.3158 90.0929 90.673 121.398 92.5622C122.128 92.5622 122.736 91.9528 122.736 91.2215C122.736 90.5511 122.128 89.9417 121.398 89.9417ZM131.185 78.2405C129.544 80.0688 127.112 81.4705 126.322 80.8001C125.593 80.1298 126.322 77.9358 126.322 77.9358C130.212 75.4371 137.75 69.099 137.75 64.2235C137.75 59.7137 133.677 58.312 129.361 62.5171C125.897 66.2347 123.343 70.7445 122.006 75.6809C119.757 77.8749 116.231 80.6783 113.01 80.6783C111.368 80.6783 110.882 79.5203 111.125 77.9358C113.861 77.8749 121.398 75.8028 121.398 69.5256C121.398 68.4896 120.912 67.5145 120.183 66.7831C119.392 66.0518 118.359 65.7471 117.326 65.808C113.921 65.808 109.545 69.2818 107.417 74.1573C106.809 74.0354 106.262 73.8526 105.715 73.6088C106.262 72.3899 106.749 71.1711 107.052 69.8913C107.539 67.3316 106.445 65.7471 104.317 65.9299C102.98 66.0518 101.338 67.2097 101.035 69.8913C100.913 71.232 101.156 72.6337 101.764 73.8526C100.852 76.7169 97.0226 80.3126 95.7461 80.1907C94.4695 80.0688 95.9284 74.9496 97.205 71.1711C97.9344 70.4397 98.4815 69.5865 98.8462 68.6114C99.2109 67.8801 98.9678 66.966 98.2383 66.5394C96.2932 65.808 94.1048 66.7222 93.2538 68.6114C92.7067 69.5256 92.2812 70.5007 91.9165 71.4758C90.8831 72.7556 89.1811 74.3401 88.6948 74.2182C87.9653 73.7307 90.336 70.6226 90.0321 68.9162C89.7889 67.4535 88.5124 66.4784 87.0535 66.6003C84.926 66.905 82.069 70.9273 82.069 70.9273C82.3729 70.196 82.6161 69.4037 82.6768 68.6114C82.5553 67.0879 79.6983 66.4175 78.3002 69.1599C77.3276 71.7805 76.5981 74.523 76.1726 77.3264C75.5647 78.6062 73.194 82.3237 71.3096 82.4456C69.79 82.5675 71.6744 75.8637 71.9175 75.4981C72.7685 74.2182 73.8019 71.5367 73.5588 70.3788C73.5588 69.8303 73.3156 69.2818 72.8901 68.9162C72.4646 68.5505 71.8567 68.4896 71.3096 68.6114C70.337 68.8552 69.5468 69.4647 69.0605 70.3179C68.3919 69.4647 67.2977 69.099 66.2035 69.2818C59.9424 69.9522 55.9305 80.7392 56.356 85.7975C56.7207 88.54 57.9972 90.1854 60.4287 89.8807C63.1642 89.5151 65.4133 85.6147 65.4133 85.6147C65.4133 85.6147 66.0212 88.8447 68.9389 88.479C71.1273 87.8086 73.0725 86.4679 74.4706 84.6396C74.4098 84.8224 74.349 85.0052 74.349 85.1881C73.8627 87.9305 78.4217 87.6258 78.8472 85.5537C80.1846 75.2543 83.7102 70.9882 84.7436 70.9882C85.5946 70.9882 82.4945 75.8637 84.2573 77.692C85.5946 79.3375 88.0261 78.0577 90.0321 76.3513C89.6674 77.6311 89.485 78.9718 89.4242 80.3126C89.3026 83.1769 90.336 85.4928 93.193 85.4318C96.9618 85.31 100.974 80.6783 103.588 76.2903C104.256 76.7169 105.047 77.0216 105.837 77.2045C105.594 78.2405 105.472 79.2766 105.533 80.3735C105.776 83.7254 108.147 85.0052 110.882 84.8834C114.104 84.7615 117.873 82.3237 120.426 80.1298C120.426 80.2516 120.365 80.3735 120.304 80.4954C120.061 82.1409 120.426 85.1271 122.796 85.249C125.532 85.4928 130.212 82.6894 132.583 79.825C134.589 78.5452 132.644 76.7169 131.185 78.2405ZM133.738 64.2845C134.042 64.2845 134.224 64.5892 134.224 64.833C134.224 67.6973 126.869 73.8526 126.869 73.8526C126.869 73.8526 131.671 64.2845 133.738 64.2845ZM116.049 70.3179C116.292 70.3179 116.535 70.3788 116.718 70.5616C116.9 70.7445 116.961 70.9882 116.9 71.232C116.9 72.8775 114.651 74.0964 112.159 74.0964C113.496 72.2071 115.016 70.3179 116.049 70.3179ZM67.1153 74.8277C66.8722 76.5341 63.8328 84.3349 62.1308 84.3349C60.0032 84.4567 63.1642 73.365 66.629 73.426C67.2977 73.426 67.2977 73.9135 67.1153 74.8277ZM40.4906 76.8998C42.4965 76.8998 38.8493 87.1992 39.3356 91.709C39.8219 96.2188 44.8672 94.939 44.5025 92.2575C43.8946 87.8696 46.9948 73.8526 50.0341 73.8526C52.2833 73.8526 47.5419 83.4817 48.5145 89.4541C49.1223 93.4154 54.5324 92.1966 53.9245 89.6979C52.2833 81.8362 57.8149 74.2182 57.0854 68.6724C56.7207 66.3565 55.4442 65.0767 53.8637 65.0767C48.7576 65.0767 44.6241 75.2543 44.6241 75.2543C44.6241 75.2543 45.1104 69.4647 40.9768 69.2209C35.0197 68.9162 28.8802 83.7254 29.0018 97.133C29.1234 101.399 34.5334 100.729 34.1687 97.2549C33.8647 91.2824 37.3904 76.8998 40.4906 76.8998Z" fill="white"/>
</g>
<defs>
<clipPath id="clip0_1_79">
<rect width="165" height="165" fill="white" transform="translate(0.25)"/>
</clipPath>
</defs>
</svg>
