<svg width="166" height="165" viewBox="0 0 166 165" fill="none" xmlns="http://www.w3.org/2000/svg">
<g clip-path="url(#clip0_1_13)">
<circle cx="82.625" cy="82.5" r="80" fill="#031F3B" stroke="#5AB2E8" stroke-width="5"/>
<path d="M45.125 55H62.4784C74.7288 55 83.773 59.2456 83.773 71.9825C83.773 84.2678 74.6728 89.8329 62.818 89.8329H54.8937V110.081H45.125V55ZM62.0094 82.0243C70.2312 82.0243 74.1373 78.7516 74.1373 71.9825C74.1373 65.1433 69.8601 62.8192 61.6699 62.8192H54.8937V82.0243H62.0094Z" fill="#5AB2E8"/>
<path d="M88.3827 105.349L92.8978 99.1817C96.5729 102.052 100.125 103.798 104.322 103.798C108.837 103.798 110.972 101.681 110.972 98.8457C110.972 95.3771 106.492 93.8266 102.079 92.1465C96.6534 90.1025 90.4512 86.9874 90.4512 80.0817C90.4512 72.9065 96.2474 67.7124 105.502 67.7124C111.263 67.7124 115.879 70.054 119.246 72.665L114.801 78.6152C111.903 76.4906 108.988 75.0066 105.736 75.0066C101.575 75.0066 99.604 76.9981 99.604 79.5917C99.604 82.8607 103.783 84.1033 108.263 85.7554C113.863 87.8554 120.125 90.5435 120.125 98.2612C120.125 105.366 114.497 111.092 104.053 111.092C98.3894 111.099 92.4253 108.681 88.3827 105.349Z" fill="#5AB2E8"/>
</g>
<defs>
<clipPath id="clip0_1_13">
<rect width="165" height="165" fill="white" transform="translate(0.125)"/>
</clipPath>
</defs>
</svg>
