<svg width="166" height="165" viewBox="0 0 166 165" fill="none" xmlns="http://www.w3.org/2000/svg">
<g clip-path="url(#clip0_1_89)">
<circle cx="83.25" cy="82.5" r="80" fill="#04035D" stroke="#A3A2FD" stroke-width="5"/>
<path d="M45.75 55H63.4301C75.8897 55 85.1257 59.3164 85.1257 72.2655C85.1257 84.7556 75.8541 90.4135 63.7726 90.4135H55.7062V111.01H45.75V55ZM62.9488 82.4747C71.3253 82.4747 75.3085 79.1475 75.3085 72.2655C75.3085 65.3123 70.9473 62.9495 62.6065 62.9495H55.7062V82.4747H62.9488Z" fill="#A3A2FD"/>
<path d="M94.868 68.9384H102.97L103.722 76.4431H103.997C107.003 70.9632 111.464 67.9029 115.979 67.9029C118.118 67.9029 119.48 68.1769 120.75 68.7605L119.035 77.3257C117.637 76.8765 116.178 76.646 114.709 76.6424C111.346 76.6424 107.292 78.9341 104.753 85.3428V111.01H94.868V68.9384Z" fill="#A3A2FD"/>
</g>
<defs>
<clipPath id="clip0_1_89">
<rect width="165" height="165" fill="white" transform="translate(0.75)"/>
</clipPath>
</defs>
</svg>
