<svg width="60" height="70" viewBox="0 0 60 70" fill="none" xmlns="http://www.w3.org/2000/svg">
<circle cx="30" cy="35" r="30" fill="#F6483B"/>
<path d="M18.4858 41.3235V43.2259H41.9278V31.1319C40.4543 32.8314 38.2856 33.9126 35.8651 33.9126C33.6589 33.9126 31.6648 33.0128 30.2142 31.5668C28.7609 33.0154 26.7577 33.9126 24.5485 33.9126C22.1279 33.9126 19.9592 32.8314 18.4858 31.1319V40.1763H29.0882V41.3235H18.4858ZM30.2068 40.1763H32.2478V41.3235H30.2068V40.1763Z" fill="white"/>
<path d="M45.3691 45.5201V26.3198C45.3691 25.4176 44.6689 24.6837 43.7845 24.6129C43.8509 25.0276 43.8949 25.4496 43.8949 25.8827C43.8949 27.1432 43.5947 28.3323 43.0749 29.395V44.373H17.3387V29.3949C16.8188 28.3323 16.5186 27.1432 16.5186 25.8827C16.5186 25.4496 16.5627 25.0276 16.629 24.6129C15.7447 24.6837 15.0444 25.4176 15.0444 26.3198V45.5201H13V48.1322C13 49.7134 14.2866 51 15.8678 51H44.5458C46.127 51 47.4135 49.7134 47.4135 48.1322V45.5201H45.3691ZM35.7945 47.1128C35.7945 48.0616 35.0227 48.8334 34.0738 48.8334H26.3397C25.3909 48.8334 24.6191 48.0616 24.6191 47.1128V46.6672H25.7662V47.1128C25.7662 47.4289 26.0233 47.6863 26.3397 47.6863H34.0738C34.3903 47.6863 34.6474 47.4289 34.6474 47.1128V46.6672H35.7945V47.1128Z" fill="white"/>
<path d="M24.5485 32.7654C26.8922 32.7654 28.9633 31.5859 30.2068 29.7915C31.4502 31.5859 33.5213 32.7654 35.8651 32.7654C39.6604 32.7654 42.7478 29.6778 42.7478 25.8827C42.7478 22.0876 39.6604 19 35.8651 19C33.5213 19 31.4502 20.1795 30.2068 21.9739C28.9633 20.1795 26.8922 19 24.5485 19C20.7531 19 17.6658 22.0876 17.6658 25.8827C17.6658 29.6778 20.7531 32.7654 24.5485 32.7654ZM36.074 23.9195L37.0105 23.2574L38.1644 24.8894L39.3182 23.2574L40.2547 23.9195L38.8667 25.8827L40.2547 27.8459L39.3182 28.508L38.1644 26.876L37.0105 28.508L36.074 27.8459L37.462 25.8827L36.074 23.9195ZM31.3696 23.5885H32.5167V26.6932C32.5167 27.1951 32.925 27.6034 33.4269 27.6034C33.9287 27.6034 34.3371 27.1951 34.3371 26.6932V23.5885H35.4842V26.6932C35.4842 27.8277 34.5611 28.7505 33.4269 28.7505C32.2927 28.7505 31.3696 27.8277 31.3696 26.6932V23.5885ZM26.5122 23.4451H27.6594V28.3203H26.5122V23.4451ZM21.4382 23.4451H22.5853V26.5498C22.5853 27.0517 22.9936 27.46 23.4955 27.46C23.9973 27.46 24.4056 27.0517 24.4056 26.5498V23.4451H25.5528V26.5498C25.5528 27.6843 24.6297 28.6071 23.4955 28.6071C22.3612 28.6071 21.4382 27.6843 21.4382 26.5498V23.4451Z" fill="white"/>
</svg>
