<svg width="60" height="70" viewBox="0 0 60 70" fill="none" xmlns="http://www.w3.org/2000/svg">
<circle cx="30" cy="35" r="30" fill="#F6483B"/>
<path d="M31.0446 47.7954C31.029 46.926 31.2503 46.0687 31.6847 45.3153L37.0009 36.1102V35.0006H37.6409L39.0265 32.6005H37.0009V27.8003H41.801V28.4275C42.1446 28.1822 42.5349 28.01 42.9478 27.9218C43.3607 27.8336 43.7873 27.8312 44.2011 27.9147V23.0001C44.2011 21.9392 43.7797 20.9218 43.0295 20.1716C42.2793 19.4214 41.2619 19 40.201 19H17.0001C15.9392 19 14.9218 19.4214 14.1716 20.1716C13.4214 20.9218 13 21.9392 13 23.0001V44.6009C13 45.1262 13.1035 45.6464 13.3045 46.1317C13.5055 46.617 13.8002 47.058 14.1716 47.4295C14.5431 47.8009 14.984 48.0955 15.4694 48.2966C15.9547 48.4976 16.4748 48.6011 17.0001 48.6011H31.0582L31.0446 47.7954ZM37.0009 21.4001H40.201C40.6253 21.4001 41.0323 21.5687 41.3324 21.8687C41.6325 22.1688 41.801 22.5758 41.801 23.0001V25.4002H37.0009V21.4001ZM20.2003 46.201H17.0001C16.5758 46.201 16.1688 46.0324 15.8687 45.7323C15.5687 45.4323 15.4001 45.0253 15.4001 44.6009V42.2008H20.2003V46.201ZM20.2003 39.8007H15.4001V35.0006H20.2003V39.8007ZM20.2003 32.6005H15.4001V27.8003H20.2003V32.6005ZM20.2003 25.4002H15.4001V23.0001C15.4001 22.5758 15.5687 22.1688 15.8687 21.8687C16.1688 21.5687 16.5758 21.4001 17.0001 21.4001H20.2003V25.4002ZM24.1956 37.9015V30.4996C24.1956 30.2187 24.2695 29.9428 24.41 29.6996C24.5504 29.4564 24.7524 29.2544 24.9956 29.114C25.2389 28.9735 25.5148 28.8996 25.7957 28.8996C26.0765 28.8996 26.3525 28.9735 26.5957 29.114L33.0055 32.8149C33.2487 32.9553 33.4507 33.1573 33.5911 33.4006C33.7316 33.6438 33.8055 33.9197 33.8055 34.2005C33.8055 34.4814 33.7316 34.7573 33.5911 35.0005C33.4507 35.2438 33.2487 35.4458 33.0055 35.5862L26.5957 39.2871C26.3525 39.4276 26.0765 39.5015 25.7957 39.5015C25.5148 39.5015 25.2389 39.4276 24.9956 39.2871C24.7524 39.1467 24.5504 38.9447 24.41 38.7015C24.2695 38.4583 24.1956 38.1823 24.1956 37.9015Z" fill="white"/>
<path d="M41.801 43.7969V44.6009C41.7995 44.9852 41.6596 45.3561 41.4071 45.6458C41.1546 45.9355 40.8063 46.1246 40.4258 46.1786L39.0273 48.6011H40.201C40.7263 48.6011 41.2465 48.4976 41.7318 48.2966C42.2171 48.0955 42.6581 47.8009 43.0295 47.4295C43.401 47.058 43.6956 46.617 43.8966 46.1317C44.0977 45.6464 44.2011 45.1262 44.2011 44.6009V39.6407L41.801 43.7969Z" fill="white"/>
<path d="M40.761 32.7997L33.4296 45.4969L37.5897 47.897L44.9212 35.1998L40.761 32.7997ZM40.9906 38.7999C40.8838 38.9821 40.7092 39.1147 40.505 39.1687C40.3007 39.2227 40.0834 39.1938 39.9004 39.0881C39.7175 38.9825 39.5837 38.8088 39.5284 38.6049C39.473 38.401 39.5006 38.1835 39.605 37.9999L40.805 35.9198C40.8572 35.8281 40.927 35.7476 41.0103 35.6829C41.0937 35.6183 41.1891 35.5708 41.2909 35.5431C41.3927 35.5155 41.499 35.5083 41.6036 35.5219C41.7083 35.5355 41.8092 35.5696 41.9005 35.6224C41.9919 35.6751 42.0719 35.7454 42.136 35.8292C42.2001 35.9131 42.247 36.0087 42.274 36.1107C42.3009 36.2127 42.3075 36.3191 42.2932 36.4236C42.2789 36.5281 42.244 36.6288 42.1907 36.7198L40.9906 38.7999Z" fill="white"/>
<path d="M45.7211 33.8134L46.3908 32.6541C46.4956 32.4719 46.5636 32.2708 46.5907 32.0623C46.6179 31.8539 46.6037 31.6421 46.5489 31.4391C46.4941 31.2361 46.3999 31.0459 46.2716 30.8793C46.1433 30.7128 45.9834 30.5732 45.8011 30.4684L44.4155 29.6684C44.048 29.4562 43.6113 29.3987 43.2014 29.5086C42.7915 29.6184 42.442 29.8865 42.2298 30.254L41.5602 31.4141L45.7211 33.8134Z" fill="white"/>
<path d="M32.7399 46.9466C32.6723 47.2154 32.64 47.4919 32.6439 47.769L32.6855 50.2131C32.6878 50.3513 32.7258 50.4865 32.7959 50.6055C32.8659 50.7246 32.9656 50.8236 33.0852 50.8927C33.2048 50.9618 33.3403 50.9988 33.4785 51C33.6166 51.0012 33.7528 50.9666 33.8736 50.8995L36.0113 49.7131C36.2533 49.5777 36.4768 49.4115 36.6761 49.2187L32.7399 46.9466Z" fill="white"/>
</svg>
