<svg width="60" height="70" viewBox="0 0 60 70" fill="none" xmlns="http://www.w3.org/2000/svg">
<circle cx="30" cy="35" r="30" fill="#F6483B"/>
<path d="M36.6281 50.1408C36.2963 50.68 35.7215 51 35.0815 51H24.4741C23.8341 51 23.2593 50.68 22.9274 50.1408C22.6074 49.6134 22.5778 48.9734 22.8622 48.4222L23.9644 46.2593H35.5911L36.6933 48.4222C36.9778 48.9734 36.9481 49.6134 36.6281 50.1408Z" fill="white"/>
<path d="M29.1852 21.963H16.1481C15.4936 21.963 14.963 22.4936 14.963 23.1481V29.0741C14.963 29.7286 15.4936 30.2592 16.1481 30.2592H29.1852C29.8397 30.2592 30.3704 29.7286 30.3704 29.0741V23.1481C30.3704 22.4936 29.8397 21.963 29.1852 21.963Z" fill="white"/>
<path d="M20.8889 31.4445H16.1481C15.4936 31.4445 14.963 31.9751 14.963 32.6296V37.3704C14.963 38.0249 15.4936 38.5556 16.1481 38.5556H20.8889C21.5434 38.5556 22.0741 38.0249 22.0741 37.3704V32.6296C22.0741 31.9751 21.5434 31.4445 20.8889 31.4445Z" fill="white"/>
<path d="M29.1851 31.4445H24.4444C23.7898 31.4445 23.2592 31.9751 23.2592 32.6296V37.3704C23.2592 38.0249 23.7898 38.5556 24.4444 38.5556H29.1851C29.8397 38.5556 30.3703 38.0249 30.3703 37.3704V32.6296C30.3703 31.9751 29.8397 31.4445 29.1851 31.4445Z" fill="white"/>
<path d="M44 38.5555H35.1111C34.7852 38.5555 34.5186 38.2889 34.5186 37.963C34.5186 37.637 34.7852 37.3704 35.1111 37.3704H44C44.326 37.3704 44.5926 37.637 44.5926 37.963C44.5926 38.2889 44.326 38.5555 44 38.5555Z" fill="white"/>
<path d="M44 35.5926H35.1111C34.7852 35.5926 34.5186 35.3259 34.5186 35C34.5186 34.6741 34.7852 34.4074 35.1111 34.4074H44C44.326 34.4074 44.5926 34.6741 44.5926 35C44.5926 35.3259 44.326 35.5926 44 35.5926Z" fill="white"/>
<path d="M44 32.6296H35.1111C34.7852 32.6296 34.5186 32.363 34.5186 32.0371C34.5186 31.7111 34.7852 31.4445 35.1111 31.4445H44C44.326 31.4445 44.5926 31.7111 44.5926 32.0371C44.5926 32.363 44.326 32.6296 44 32.6296Z" fill="white"/>
<path d="M44.5926 19H14.963C13.3274 19 12 20.3274 12 21.963V42.1111C12 43.7467 13.3274 45.0741 14.963 45.0741H44.5926C46.2281 45.0741 47.5556 43.7467 47.5556 42.1111V21.963C47.5556 20.3274 46.2281 19 44.5926 19ZM13.1852 40.3333V21.963C13.1852 20.9852 13.9852 20.1852 14.963 20.1852H31.5556V40.3333H13.1852ZM46.3704 40.3333H32.7407V20.1852H44.5926C45.5704 20.1852 46.3704 20.9852 46.3704 21.963V40.3333Z" fill="white"/>
<path d="M42.2222 28.4814C42.0978 28.4814 41.9733 28.44 41.8667 28.3629C41.6059 28.1674 41.5526 27.794 41.7481 27.5333L43.2592 25.5185L41.7481 23.5037C41.5526 23.2429 41.6059 22.8696 41.8667 22.674C42.1274 22.4785 42.5007 22.5318 42.6963 22.7926L44.4741 25.1629C44.6341 25.3763 44.6341 25.6607 44.4741 25.874L42.6963 28.2444C42.5778 28.3985 42.4 28.4814 42.2222 28.4814Z" fill="white"/>
<path d="M36.2964 28.4814C36.1186 28.4814 35.9408 28.3985 35.8223 28.2444L34.0445 25.874C33.8845 25.6607 33.8845 25.3763 34.0445 25.1629L35.8223 22.7926C36.0178 22.5318 36.3912 22.4785 36.6519 22.674C36.9126 22.8696 36.966 23.2429 36.7704 23.5037L35.2593 25.5185L36.7704 27.5333C36.966 27.794 36.9126 28.1674 36.6519 28.3629C36.5452 28.44 36.4208 28.4814 36.2964 28.4814Z" fill="white"/>
<path d="M38.6667 28.4815C38.6193 28.4815 38.5719 28.4815 38.5245 28.4637C38.2045 28.3867 38.0149 28.0607 38.0919 27.7467L39.2771 23.0059C39.3541 22.6859 39.6741 22.4963 39.9941 22.5733C40.3141 22.6504 40.5037 22.9763 40.4267 23.2904L39.2415 28.0311C39.1763 28.3037 38.9334 28.4815 38.6667 28.4815Z" fill="white"/>
</svg>
