<svg width="166" height="165" viewBox="0 0 166 165" fill="none" xmlns="http://www.w3.org/2000/svg">
<g clip-path="url(#clip0_2_15)">
<circle cx="82.75" cy="82.5" r="80" fill="#2592C3" stroke="white" stroke-width="5"/>
<g clip-path="url(#clip1_2_15)">
<path d="M45.25 82.3826C45.2561 89.4085 47.242 96.2904 50.9801 102.239C54.7181 108.188 60.0569 112.963 66.3844 116.017L48.5015 67.1279C46.3535 71.9137 45.2453 77.1007 45.25 82.3465V82.3826ZM108.066 80.4949C108.015 76.8352 106.942 73.2626 104.968 70.1807C103.072 67.1008 101.292 64.4996 101.292 61.4198C101.271 60.5686 101.417 59.7215 101.723 58.9269C102.03 58.1324 102.489 57.406 103.077 56.7894C103.664 56.1728 104.367 55.678 105.146 55.3335C105.924 54.9889 106.763 54.8014 107.615 54.7815C107.777 54.7725 107.94 54.7725 108.102 54.7815C101.197 48.4617 92.174 44.9589 82.8132 44.9639C69.7081 44.9639 58.301 50.8346 51.5994 60.9773H63.8916C65.9057 60.8598 66.1496 64.2016 64.1265 64.4455C64.1265 64.4455 62.0943 64.6803 59.8364 64.7977L73.4924 105.287L81.7023 80.7569L75.8588 64.7977C73.8356 64.6803 71.9209 64.4455 71.9209 64.4455C69.8978 64.3281 70.1145 60.8327 72.1648 60.914H92.0347C94.0488 60.8056 94.2926 64.2016 92.2695 64.4455C92.2695 64.4455 90.2374 64.6803 87.9794 64.7977L101.527 104.971L105.266 92.5253C107.163 87.6662 108.114 83.638 108.12 80.4408L108.066 80.4949ZM83.4093 85.6521L72.1286 118.239C79.6845 120.463 87.749 120.252 95.1778 117.634C95.0749 117.472 94.9844 117.303 94.9068 117.128L83.3822 85.6521H83.4093ZM115.653 64.4184C115.827 65.6934 115.915 66.9789 115.915 68.2659C115.85 72.8724 114.877 77.4209 113.052 81.651L101.599 114.653C110.039 109.774 116.234 101.787 118.86 92.3988C121.487 83.0111 120.335 72.9683 115.653 64.4184Z" fill="white"/>
</g>
</g>
<defs>
<clipPath id="clip0_2_15">
<rect width="165" height="165" fill="white" transform="translate(0.25)"/>
</clipPath>
<clipPath id="clip1_2_15">
<rect width="75" height="74.7652" fill="white" transform="translate(45.25 45)"/>
</clipPath>
</defs>
</svg>
