<svg width="166" height="165" viewBox="0 0 166 165" fill="none" xmlns="http://www.w3.org/2000/svg">
<g clip-path="url(#clip0_1_38)">
<circle cx="83.375" cy="82.5" r="80" fill="#400131" stroke="#E577DC" stroke-width="5"/>
<path d="M59.6911 83.743L46.7352 60.1488H56.3275L61.7519 70.9604C62.9122 73.1976 63.9551 75.4595 65.4156 78.4084H65.725C66.9473 75.4595 67.9282 73.1976 69.0019 70.9604L74.1539 60.1488H83.3285L70.3727 84.1638L84.195 108.853H74.6026L68.6429 97.358C67.4052 94.8825 66.1675 92.4071 64.741 89.4304H64.4316C63.1506 92.4102 61.9871 94.8825 60.8267 97.358L55.0496 108.853H45.875L59.6911 83.743Z" fill="#E577DC"/>
<path d="M87.5399 90.5969C87.5399 78.6807 95.0158 71.3781 103.03 71.3781C107.17 71.3781 109.791 72.9253 112.622 75.4007L112.294 69.5215V56.25H120.875V108.853H113.842L113.189 104.896H112.95C110.24 107.606 106.486 109.745 102.554 109.745C93.4191 109.745 87.5399 102.659 87.5399 90.5969ZM112.294 98.5462V81.5058C109.791 79.2748 107.319 78.4672 104.846 78.4672C100.205 78.4672 96.3556 82.8766 96.3556 90.5041C96.3556 98.4596 99.3943 102.659 104.667 102.659C107.489 102.659 109.872 101.408 112.294 98.5462Z" fill="#E577DC"/>
</g>
<defs>
<clipPath id="clip0_1_38">
<rect width="165" height="165" fill="white" transform="translate(0.875)"/>
</clipPath>
</defs>
</svg>
